C:\GBW_MyPrograms\KinderuniversiteitApp\Resultaten\Ellis\Jullie\Jullie_v1.mot
version=1
nRows=14
nColumns=29
inDegrees=yes
endheader
                time	         pelvis_tilt	           pelvis_tx	           pelvis_ty	       hip_flexion_l	       hip_flexion_r	        knee_angle_l	        knee_angle_r	       ankle_angle_l	       ankle_angle_r	    lumbar_extension	hamstrings_r/activation	bifemsh_r/activation	glut_max_r/activation	iliopsoas_r/activation	rect_fem_r/activation	  vasti_r/activation	gastroc_r/activation	 soleus_r/activation	tib_ant_r/activation	hamstrings_l/activation	bifemsh_l/activation	glut_max_l/activation	iliopsoas_l/activation	rect_fem_l/activation	  vasti_l/activation	gastroc_l/activation	 soleus_l/activation	tib_ant_l/activation	
          0.98847272	         -7.91913809	          1.22061517	          0.89328811	         -8.91303279	         30.70788849	         -9.86667177	         -8.52368879	          6.28488863	          9.05933842	          1.59363386	          0.23694949	          0.05000052	          0.05168436	          0.05000025	          0.07608916	          0.06793676	          0.05000055	          0.05430790	          0.22302147	          0.05000019	          0.15862386	          0.05000016	          0.59060516	          0.05000023	          0.05000004	          0.18275304	          0.31438696	          0.05000002	
          0.99835745	         -7.93918142	          1.23585142	          0.89278939	         -8.37746970	         29.83129802	        -12.54491211	         -8.03216444	          5.57378984	          8.87950109	          1.95257248	          0.21562293	          0.05000038	          0.06044347	          0.05000024	          0.06532690	          0.08853767	          0.05000010	          0.05000009	          0.24139258	          0.05000008	          0.13618760	          0.05000016	          0.52091609	          0.05000028	          0.05000003	          0.15690385	          0.26991904	          0.05000002	
          1.00824218	         -7.95474218	          1.25127139	          0.89221790	         -7.64315695	         28.91088548	        -15.57752166	         -8.02357270	          4.66048527	          8.63396375	          2.33152000	          0.19040877	          0.05080221	          0.10678456	          0.05000006	          0.05608688	          0.07700340	          0.06130757	          0.05823753	          0.23590857	          0.05641232	          0.11692480	          0.05000021	          0.44723602	          0.05000008	          0.05000003	          0.13471085	          0.23174080	          0.05000001	
          1.01812691	         -7.96881629	          1.26664402	          0.89170324	         -6.68556756	         27.97525439	        -18.94130231	         -8.12940559	          3.40676956	          8.34389206	          2.70468660	          0.16347676	          0.05824344	          0.14165072	          0.05000006	          0.05000008	          0.11238850	          0.05263606	          0.05000025	          0.28452993	          0.05000019	          0.10038659	          0.06783348	          0.38397750	          0.05000014	          0.05000004	          0.11565691	          0.19896262	          0.05000008	
          1.02801163	         -7.98577728	          1.28164213	          0.89148901	         -5.48899189	         27.12351874	        -22.58277821	         -8.30963699	          1.76822276	          7.96264533	          3.03556835	          0.14036994	          0.05000556	          0.19041244	          0.05000004	          0.05000010	          0.18635897	          0.05000013	          0.05000015	          0.30550055	          0.05000029	          0.08618762	          0.05823895	          0.32966647	          0.05000043	          0.05000009	          0.09929802	          0.17082069	          0.25410960	
          1.03789636	         -8.00820747	          1.29601867	          0.89163926	         -4.10309962	         26.38894849	        -26.35849556	         -8.61556725	          0.36542110	          7.62820479	          3.29603058	          0.12051559	          0.05000038	          0.20815190	          0.05000004	          0.05000016	          0.23401953	          0.05000008	          0.05000007	          0.32792072	          0.05000018	          0.07399706	          0.05000214	          0.28303737	          0.13481742	          0.05000003	          0.08525299	          0.14665925	          0.23245543	
          1.04778109	         -8.03769903	          1.30974586	          0.89220646	         -2.64882460	         25.73245468	        -29.91033959	         -8.97860957	          0.07265437	          7.38376422	          3.48511737	          0.10914880	          0.05000093	          0.19834621	          0.05000008	          0.05000021	          0.25671521	          0.05000018	          0.05000023	          0.32776528	          0.05000038	          0.08550631	          0.05000002	          0.24300365	          0.19962553	          0.05000001	          0.07319458	          0.12591528	          0.29628555	
          1.05766582	         -8.07244269	          1.32294202	          0.89326434	         -1.19928408	         25.09442818	        -33.03250522	         -9.31324464	          0.20562483	          7.25236115	          3.61667731	          0.10025558	          0.05000119	          0.19098389	          0.05000008	          0.05000020	          0.25970665	          0.05000023	          0.05000030	          0.32326310	          0.05233961	          0.12961899	          0.05000004	          0.20863247	          0.26566241	          0.05000001	          0.06536311	          0.10810542	          0.29226943	
          1.06755054	         -8.11098377	          1.33573374	          0.89476365	          0.20718641	         24.42669334	        -35.64665090	         -9.54767052	          0.53296820	          7.21103426	          3.70553468	          0.09584252	          0.05000149	          0.17786206	          0.05000008	          0.05000020	          0.24920153	          0.05000035	          0.05000051	          0.31264272	          0.06538807	          0.17614100	          0.05000003	          0.17913541	          0.31408958	          0.05000001	          0.06904479	          0.09281463	          0.28318439	
          1.07743527	         -8.15126606	          1.34821944	          0.89659867	          1.55953931	         23.70460933	        -37.76093799	         -9.65043113	          0.98106418	          7.23254624	          3.76178585	          0.09507138	          0.05000182	          0.16476646	          0.05000008	          0.05000018	          0.23254931	          0.05000033	          0.05000046	          0.30043751	          0.07566086	          0.22632433	          0.05000003	          0.16104309	          0.34512495	          0.05000001	          0.06915154	          0.07968663	          0.26798773	
          1.08732000	         -8.19138426	          1.36046243	          0.89864959	          2.86656993	         22.92368138	        -39.43608191	         -9.62132218	          1.50594868	          7.28625358	          3.79099324	          0.09472212	          0.05000136	          0.15442693	          0.05000007	          0.05000018	          0.21474274	          0.05000029	          0.05000044	          0.28809577	          0.07757762	          0.27836459	          0.05000004	          0.14858532	          0.36119015	          0.05000002	          0.06676058	          0.06841550	          0.25145292	
          1.09720472	         -8.22979089	          1.37250113	          0.90080470	          4.14567888	         22.08901757	        -40.75176264	         -9.47497608	          2.08242981	          7.35231175	          3.79586064	          0.09522380	          0.05000106	          0.14857717	          0.05000006	          0.05000017	          0.19833187	          0.05000022	          0.05000036	          0.27701913	          0.06663406	          0.33266518	          0.05000004	          0.13876005	          0.36395120	          0.05000002	          0.06388591	          0.05873859	          0.23426040	
          1.10708945	         -8.26501884	          1.38435999	          0.90297052	          5.41529458	         21.20730004	        -41.78457050	         -9.22767927	          2.68560864	          7.41772739	          3.77738985	          0.09429553	          0.05000080	          0.14319665	          0.05000006	          0.05000018	          0.18443670	          0.05000018	          0.05000034	          0.26743384	          0.05720969	          0.38808063	          0.05000005	          0.13223812	          0.35790047	          0.05000003	          0.06207022	          0.05043044	          0.21859448	
          1.11697418	         -8.29557182	          1.39605321	          0.90507203	          6.69456143	         20.28553332	        -42.60969357	         -8.89581141	          3.27842935	          7.47611731	          3.73525754	          0.09192724	          0.05000064	          0.13716480	          0.05000005	          0.05000020	          0.17336775	          0.05000015	          0.05000030	          0.25944427	          0.05000056	          0.44179246	          0.05000005	          0.12784179	          0.34567595	          0.05000003	          0.05329095	          0.05000004	          0.21128717	
